<?xml version="1.0" standalone="no"?>
<!DOCTYPE svg PUBLIC "-//W3C//DTD SVG 20010904//EN"
 "http://www.w3.org/TR/2001/REC-SVG-20010904/DTD/svg10.dtd">
<svg version="1.0" xmlns="http://www.w3.org/2000/svg"
 width="180.000000pt" height="279.000000pt" viewBox="0 0 180.000000 279.000000"
 preserveAspectRatio="xMidYMid meet">
<metadata>
Created by potrace 1.16, written by Peter Selinger 2001-2019
</metadata>
<g transform="translate(0.000000,279.000000) scale(0.100000,-0.100000)"
fill="#000000" stroke="none">
<path d="M855 2780 c-33 -6 -64 -11 -70 -13 -5 -2 -15 -51 -21 -110 -7 -58
-38 -210 -70 -337 -48 -194 -60 -230 -73 -225 -9 4 -44 11 -78 17 -85 13 -180
-3 -263 -44 -158 -80 -145 -209 30 -308 11 -6 -2 -26 -61 -92 -134 -147 -184
-245 -210 -415 -6 -43 -18 -95 -25 -116 -19 -50 -18 -86 5 -154 10 -32 26 -91
36 -130 47 -206 179 -405 346 -522 l68 -48 -74 -47 c-113 -72 -164 -149 -122
-185 33 -27 153 -45 307 -45 181 -1 197 4 251 83 19 28 37 51 40 51 3 0 11
-11 17 -24 24 -53 71 -94 124 -106 60 -15 272 -8 358 10 114 25 133 52 85 122
-22 32 -135 117 -178 134 -24 9 -21 16 16 40 27 18 34 19 45 8 25 -27 157 26
236 96 141 121 212 277 223 485 7 144 -10 211 -71 271 -34 35 -44 53 -55 106
-16 80 -54 190 -80 232 -16 26 -19 43 -15 82 5 41 2 55 -18 84 -27 40 -105 87
-159 96 -64 11 -64 12 -29 125 39 126 107 272 184 397 66 107 69 89 -28 211
-93 118 -237 218 -368 255 -71 20 -223 28 -303 16z m116 -720 c87 -26 174 -85
245 -164 58 -66 84 -108 63 -103 -6 1 -17 -15 -25 -36 -7 -21 -24 -47 -36 -57
-22 -18 -23 -18 -63 20 -81 76 -188 171 -261 232 -42 34 -71 64 -65 66 6 2 8
8 5 14 -4 6 2 8 16 3 15 -5 20 -4 16 4 -5 7 3 11 20 11 22 0 25 2 14 15 -16
20 -5 19 71 -5z m-218 -404 c18 -7 50 -33 70 -56 20 -24 37 -39 37 -34 0 5 13
25 28 44 l28 33 90 -51 c49 -28 113 -61 142 -73 60 -25 68 -41 59 -126 -7 -70
-41 -137 -88 -175 -41 -33 -109 -50 -109 -26 0 37 -97 98 -158 98 -46 0 -127
-48 -144 -85 -28 -62 -150 6 -194 110 -22 52 -22 167 -1 218 48 112 146 163
240 123z m132 -396 c7 0 23 -9 36 -20 15 -12 17 -18 8 -14 -10 3 -20 1 -24 -5
-3 -6 -1 -11 4 -11 8 0 9 -19 5 -57 -5 -39 -4 -54 4 -49 6 3 14 1 18 -5 4 -8
3 -9 -4 -5 -7 4 -12 2 -12 -4 0 -6 -4 -8 -10 -5 -5 3 -10 2 -10 -3 0 -6 7 -13
16 -16 10 -4 13 -2 8 6 -4 7 -3 8 4 4 13 -8 -16 -62 -47 -90 -19 -17 -21 -15
-66 41 -53 67 -85 124 -85 152 0 35 92 96 128 85 8 -2 20 -4 27 -4z m-302
-359 c29 -22 81 -53 117 -70 72 -34 64 -39 -24 -16 -113 30 -195 105 -309 283
-26 40 -47 75 -47 78 0 3 47 -49 105 -115 58 -67 129 -139 158 -160z m473 104
c50 -29 116 -100 144 -154 100 -197 42 -446 -132 -564 -171 -116 -395 -69
-512 107 -47 71 -66 124 -73 207 l-6 66 99 0 c106 0 167 14 250 56 88 44 107
87 39 87 -51 0 -154 36 -217 75 -32 20 -58 40 -58 45 0 23 129 110 164 110 8
0 29 -18 46 -40 58 -74 82 -73 136 5 32 48 38 48 120 0z m426 -170 c37 -139
27 -265 -30 -353 -21 -32 -22 -24 -6 38 18 71 18 230 -1 350 -25 163 -26 170
-4 105 10 -33 29 -96 41 -140z m-1012 -674 c43 -19 182 -49 258 -57 39 -3 72
-10 72 -15 0 -13 -59 -51 -70 -44 -5 3 -10 1 -10 -5 0 -7 -41 -10 -125 -9 -69
1 -125 6 -125 11 0 5 -15 6 -32 3 -28 -5 -38 -1 -67 29 -27 28 -38 33 -52 26
-12 -7 -20 -6 -25 2 -4 7 -3 8 4 4 7 -4 12 -1 12 10 0 9 16 32 36 50 38 37 29
37 124 -5z m899 26 c6 -8 8 -17 4 -21 -4 -4 0 -4 8 -1 10 4 22 -3 33 -19 21
-33 20 -39 -4 -33 -27 7 -26 -10 1 -18 13 -5 25 -2 31 6 7 11 8 9 4 -4 -3 -10
-6 -20 -6 -23 0 -2 -12 1 -26 6 -35 14 -36 13 -29 -10 4 -11 2 -20 -4 -20 -6
0 -11 3 -11 8 0 4 -20 7 -44 7 -25 0 -40 -3 -34 -6 26 -16 -73 -31 -180 -28
-92 4 -115 8 -138 25 -46 34 -40 41 48 54 105 15 168 31 243 63 71 29 89 32
104 14z"/>
</g>
</svg>
